<svg class="svg-icon" style="width: 1em; height: 1em;vertical-align: middle;fill: currentColor;overflow: hidden;" viewBox="0 0 1024 1024" version="1.1" xmlns="http://www.w3.org/2000/svg"><path d="M868.584348 842.425571l49.0266-46.549176c16.365736-15.539928 17.099447-41.463344 1.633197-57.907874-15.458063-16.441461-41.257659-17.180288-57.622372-1.64036l-49.028647 46.555315-45.154409-48.025807c-15.462157-16.443507-41.257659-17.179264-57.622372-1.638313-16.365736 15.534811-17.096377 41.460274-1.633197 57.902758l45.156456 48.025807-49.025577 46.550199c-16.361643 15.536858-17.095353 41.463344-1.629103 57.903781 15.458063 16.442484 41.255613 17.177218 57.619302 1.642406l49.0266-46.551222 47.491641 50.504254c15.458063 16.443507 41.255613 17.178241 57.622372 1.639337 16.365736-15.536858 17.09433-41.462321 1.633197-57.904805L868.584348 842.425571zM291.599288 231.30711l4.897543 0c23.193235 0 41.993416-18.892279 41.993416-42.197054L338.490248 104.172571c0-23.306822-18.800181-42.198078-41.993416-42.198078l-4.897543 0c-23.193235 0-41.993416 18.891256-41.993416 42.198078l0 84.937484C249.606895 212.413807 268.406053 231.30711 291.599288 231.30711zM506.401492 231.30711l4.89652 0c23.196305 0 41.99444-18.892279 41.99444-42.197054L553.292452 104.172571c0-23.306822-18.798135-42.198078-41.99444-42.198078l-4.89652 0c-23.195282 0-41.993416 18.891256-41.993416 42.198078l0 84.937484C464.409099 212.413807 483.207233 231.30711 506.401492 231.30711zM713.795982 231.30711l4.898567 0c23.194258 0 41.99444-18.892279 41.99444-42.197054L760.688989 104.172571c0-23.306822-18.800181-42.198078-41.99444-42.198078l-4.898567 0c-23.193235 0-41.992393 18.891256-41.992393 42.198078l0 84.937484C671.803589 212.413807 690.602747 231.30711 713.795982 231.30711zM703.255928 852.595188 678.200276 827.414693c-31.821753-31.976272-31.821753-83.814917 0-115.79119 31.816636-31.970132 83.404572-31.970132 115.227348 0l25.058722 25.182542 25.053606-25.177426c17.975397-18.065448 42.264593-25.918299 65.730027-23.569812L909.269979 182.290743c0-23.305799-18.800181-42.197054-41.989323-42.197054l-76.036767 0 0 50.291406c0 44.190455-35.650965 80.015382-79.625502 80.015382-43.975561 0-79.626525-35.824927-79.626525-80.015382l0-50.291406-48.145533 0 0 50.291406c0 44.190455-35.647895 80.015382-79.623455 80.015382-43.974537 0-79.625502-35.824927-79.625502-80.015382l0-50.291406-49.995671 0 0 50.291406c0 44.190455-35.650965 80.015382-79.625502 80.015382-43.975561 0-79.626525-35.824927-79.626525-80.015382l0-50.291406-79.739089 0c-23.193235 0-41.993416 18.891256-41.993416 42.197054l0 727.801974c0 23.303752 18.799158 42.198078 41.993416 42.198078l520.42795 0c-5.355985-26.083052 2.01796-54.276161 22.157649-74.516134L703.255928 852.595188zM209.407334 379.562688c0-23.304775 18.799158-42.198078 41.992393-42.198078l502.063697 0c23.193235 0 41.99137 18.892279 41.99137 42.198078l0 4.919033c0 23.304775-18.798135 42.198078-41.99137 42.198078L251.399727 426.679799c-23.193235 0-41.992393-18.893302-41.992393-42.198078L209.407334 379.562688zM562.175773 739.016387c0 17.393135-14.031575 31.495318-31.342846 31.495318L240.750179 770.511705c-17.311271 0-31.342846-14.102183-31.342846-31.495318l0-3.672646c0-17.394159 14.031575-31.495318 31.342846-31.495318l290.082748 0c17.311271 0 31.342846 14.100136 31.342846 31.495318L562.175773 739.016387zM647.315872 570.468646c0 23.303752-18.798135 42.195008-41.99444 42.195008L251.399727 612.663654c-23.193235 0-41.992393-18.891256-41.992393-42.195008l0-4.920056c0-23.306822 18.799158-42.199101 41.992393-42.199101l353.922728 0c23.196305 0 41.99444 18.892279 41.99444 42.199101L647.316895 570.468646z"  /></svg>